name rise30.2954peak35.7071fall66.7804.mot
datacolumns 19
datarows 12
range 9.97330000000000 9.99163400000000
endheader
time	ground_force1_vx	ground_force1_vy	ground_force1_vz	ground_force1_px	ground_force1_py	ground_force1_pz	ground_force2_vx	ground_force2_vy	ground_force2_vz	ground_force2_px	ground_force2_py	ground_force2_pz	ground_torque1_x	ground_torque1_y	ground_torque1_z	ground_torque2_x	ground_torque2_y	ground_torque2_z	
9.97330000000000	-61.62710000000000	844.78066400000000	44.75078500000000	0.13678300000000	0.00000000000000	0.12264000000000	0.00000000000000	0.00000000000000	0.00000000000000	0.00000000000000	0.00000000000000	0.00000000000000	0.00000000000000	26.50539300000000	0.00000000000000	0.00000000000000	0.00000000000000	0.00000000000000	
9.97496700000000	-62.39517100000000	843.49627899999996	44.79804500000000	0.13587100000000	0.00000000000000	0.12261300000000	0.00000000000000	0.00000000000000	0.00000000000000	0.00000000000000	0.00000000000000	0.00000000000000	0.00000000000000	26.55443300000000	0.00000000000000	0.00000000000000	0.00000000000000	0.00000000000000	
9.97663100000000	-63.17880900000000	842.08581300000003	44.83661000000000	0.13496800000000	0.00000000000000	0.12258400000000	0.00000000000000	0.00000000000000	0.00000000000000	0.00000000000000	0.00000000000000	0.00000000000000	0.00000000000000	26.60542300000000	0.00000000000000	0.00000000000000	0.00000000000000	0.00000000000000	
9.97829800000000	-63.97806100000000	840.54779599999995	44.86575700000000	0.13407400000000	0.00000000000000	0.12255300000000	0.00000000000000	0.00000000000000	0.00000000000000	0.00000000000000	0.00000000000000	0.00000000000000	0.00000000000000	26.65830700000000	0.00000000000000	0.00000000000000	0.00000000000000	0.00000000000000	
9.97996500000000	-64.79289400000000	838.88074099999994	44.88475200000000	0.13318900000000	0.00000000000000	0.12251900000000	0.00000000000000	0.00000000000000	0.00000000000000	0.00000000000000	0.00000000000000	0.00000000000000	0.00000000000000	26.71301200000000	0.00000000000000	0.00000000000000	0.00000000000000	0.00000000000000	
9.98164700000000	-65.62319200000000	837.08314499999994	44.89285400000000	0.13231400000000	0.00000000000000	0.12248200000000	0.00000000000000	0.00000000000000	0.00000000000000	0.00000000000000	0.00000000000000	0.00000000000000	0.00000000000000	26.76944200000000	0.00000000000000	0.00000000000000	0.00000000000000	0.00000000000000	
9.98329500000000	-66.46875199999999	835.15348500000005	44.88931600000000	0.13144800000000	0.00000000000000	0.12244200000000	-1.21090700000000	3.95851500000000	1.48120900000000	0.00000000000000	0.00000000000000	0.00000000000000	0.00000000000000	26.82747800000000	0.00000000000000	0.00000000000000	0.55639000000000	0.00000000000000	
9.98496900000000	-67.32928000000000	833.09021399999995	44.87338700000000	0.13059100000000	0.00000000000000	0.12240000000000	-1.94118500000000	7.38904800000000	2.53594800000000	0.00000000000000	0.00000000000000	0.00000000000000	0.00000000000000	26.88698200000000	0.00000000000000	0.00000000000000	0.96256500000000	0.00000000000000	
9.98663400000000	-68.20438900000001	830.89176499999996	44.84431300000000	0.12974300000000	0.00000000000000	0.12235400000000	-2.76772300000000	11.50147800000000	3.76416300000000	0.00000000000000	0.00000000000000	0.00000000000000	0.00000000000000	26.94779200000000	0.00000000000000	0.00000000000000	1.43734400000000	0.00000000000000	
9.98829800000000	-69.09359900000000	828.55654600000003	44.80134500000000	0.12890400000000	0.00000000000000	0.12230500000000	-3.66555400000000	16.24316500000000	5.13915500000000	0.00000000000000	0.00000000000000	0.00000000000000	0.00000000000000	27.00972500000000	0.00000000000000	0.00000000000000	1.97093600000000	0.00000000000000	
9.98996400000000	-69.99632800000001	826.08294200000000	44.74373400000000	0.12807300000000	0.00000000000000	0.12225300000000	-4.60340800000000	21.53041300000000	6.62474400000000	0.00000000000000	0.00000000000000	0.00000000000000	0.00000000000000	27.07257500000000	0.00000000000000	0.00000000000000	2.54987500000000	0.00000000000000	
9.99163400000000	-70.91189600000000	823.46931500000005	44.67074000000000	0.12725100000000	0.00000000000000	0.12219800000000	-5.54575500000000	27.25466900000000	8.17768300000000	0.35104600000000	0.00000000000000	-0.04227400000000	0.00000000000000	27.13611200000000	0.00000000000000	0.00000000000000	5.79422800000000	0.00000000000000	
